<svg xmlns="http://www.w3.org/2000/svg" viewBox="0 0 299 464.14"><defs><style>.cls-1{fill:#fff;}</style></defs><title>jairao</title><g id="Camada_2" data-name="Camada 2"><g id="Camada_2-2" data-name="Camada 2"><path class="cls-1" d="M281.9,76.36a130.36,130.36,0,0,0-44.42-50.54C214,10.21,184.51,1.53,149.74,0h-.47C114.49,1.53,85,10.21,61.52,25.81A130.37,130.37,0,0,0,17.1,76.36C-.82,111.83,0,146,0,147.47c2,64.07,44,128.12,47.29,133,1.52,2.76,19,35.17,22.24,60.74,3.74,29.89,15.94,37.34,17.32,38.1l1.23.67H210.89l1.23-.67c1.38-.75,13.58-8.2,17.32-38.1,3.2-25.53,20.73-58,22.24-60.74,3.28-4.91,45.3-69,47.29-133C299,146,299.82,111.83,281.9,76.36ZM288,147.13c-1.93,62-45.13,126.78-45.56,127.43l-.24.4c-.82,1.46-20.06,36.22-23.65,64.91-2.43,19.42-8.59,26.94-10.92,29.14H162.16V258s-.79-12.25,5.21-18.62c0,0,30.63,12.13,47.79-20.71s29-36,29-36-41.33-18.33-64,5.67c0,0-18.67,18.67-16.17,48.5a46.82,46.82,0,0,0-4.18,20V369H144.16V266s31.33-32,5.34-77.67-92-72.33-92-72.33c10.33,12.67,14,16.67,19.67,76s64.33,77,64.33,77V369H91.39c-2.33-2.2-8.49-9.72-10.92-29.14C76.88,311.18,57.63,276.42,56.81,275l-.24-.4c-.44-.65-43.64-65.4-45.56-127.42,0-.32-.77-32.82,15.91-65.84A119.51,119.51,0,0,1,67.62,35c21.7-14.44,49.25-22.5,81.88-24,32.52,1.46,60,9.47,81.66,23.82a119.44,119.44,0,0,1,40.73,46.12C288.7,114,288,146.82,288,147.13Z"/><path class="cls-1" d="M84,391.25A5.75,5.75,0,0,0,89.74,397H209.25a5.75,5.75,0,0,0,5.75-5.75V387H84Z"/><rect class="cls-1" x="85.49" y="402" width="128" height="12" rx="5.53" ry="5.53"/><rect class="cls-1" x="84.99" y="421" width="129" height="12" rx="5.53" ry="5.53"/><path class="cls-1" d="M195.13,458.14H103.87a3,3,0,0,0,0,6h91.25a3,3,0,0,0,0-6Z"/><rect class="cls-1" x="90.44" y="439.33" width="118.12" height="12.33" rx="5.53" ry="5.53"/></g></g></svg>